<mxfile host="Electron" agent="Mozilla/5.0 (Windows NT 10.0; Win64; x64) AppleWebKit/537.36 (KHTML, like Gecko) draw.io/26.1.1 Chrome/132.0.6834.210 Electron/34.3.3 Safari/537.36" version="26.1.1">
  <diagram name="Página-1" id="LUzN7v-kLdpod480Anpl">
    <mxGraphModel dx="1434" dy="836" grid="0" gridSize="10" guides="1" tooltips="1" connect="1" arrows="1" fold="1" page="1" pageScale="1" pageWidth="827" pageHeight="1169" math="0" shadow="0">
      <root>
        <mxCell id="0" />
        <mxCell id="1" parent="0" />
        <mxCell id="pvc64GFZ2TO9P3zm8tja-3" style="edgeStyle=orthogonalEdgeStyle;rounded=0;orthogonalLoop=1;jettySize=auto;html=1;entryX=0;entryY=0.5;entryDx=0;entryDy=0;" edge="1" parent="1" source="pvc64GFZ2TO9P3zm8tja-1" target="pvc64GFZ2TO9P3zm8tja-2">
          <mxGeometry relative="1" as="geometry" />
        </mxCell>
        <mxCell id="pvc64GFZ2TO9P3zm8tja-5" style="edgeStyle=orthogonalEdgeStyle;rounded=0;orthogonalLoop=1;jettySize=auto;html=1;entryX=0;entryY=0.5;entryDx=0;entryDy=0;" edge="1" parent="1" source="pvc64GFZ2TO9P3zm8tja-1" target="pvc64GFZ2TO9P3zm8tja-4">
          <mxGeometry relative="1" as="geometry" />
        </mxCell>
        <mxCell id="pvc64GFZ2TO9P3zm8tja-7" style="edgeStyle=orthogonalEdgeStyle;rounded=0;orthogonalLoop=1;jettySize=auto;html=1;entryX=0;entryY=0.5;entryDx=0;entryDy=0;" edge="1" parent="1" source="pvc64GFZ2TO9P3zm8tja-1" target="pvc64GFZ2TO9P3zm8tja-6">
          <mxGeometry relative="1" as="geometry" />
        </mxCell>
        <mxCell id="pvc64GFZ2TO9P3zm8tja-29" style="edgeStyle=orthogonalEdgeStyle;rounded=0;orthogonalLoop=1;jettySize=auto;html=1;entryX=0;entryY=0.5;entryDx=0;entryDy=0;" edge="1" parent="1" source="pvc64GFZ2TO9P3zm8tja-1" target="pvc64GFZ2TO9P3zm8tja-28">
          <mxGeometry relative="1" as="geometry" />
        </mxCell>
        <mxCell id="pvc64GFZ2TO9P3zm8tja-1" value="Cliente" style="shape=umlActor;verticalLabelPosition=bottom;verticalAlign=top;html=1;outlineConnect=0;" vertex="1" parent="1">
          <mxGeometry x="117" y="153" width="30" height="60" as="geometry" />
        </mxCell>
        <mxCell id="pvc64GFZ2TO9P3zm8tja-2" value="Registrar envío (detalles del paquete, destino)" style="rounded=0;whiteSpace=wrap;html=1;" vertex="1" parent="1">
          <mxGeometry x="235" y="62" width="166" height="37" as="geometry" />
        </mxCell>
        <mxCell id="pvc64GFZ2TO9P3zm8tja-4" value="Ver seguimiento en tiempo real" style="rounded=0;whiteSpace=wrap;html=1;" vertex="1" parent="1">
          <mxGeometry x="235" y="128.5" width="166" height="37" as="geometry" />
        </mxCell>
        <mxCell id="pvc64GFZ2TO9P3zm8tja-6" value="Recibir notificaciones de cambios de estado" style="rounded=0;whiteSpace=wrap;html=1;" vertex="1" parent="1">
          <mxGeometry x="235" y="196" width="166" height="37" as="geometry" />
        </mxCell>
        <mxCell id="pvc64GFZ2TO9P3zm8tja-8" style="edgeStyle=orthogonalEdgeStyle;rounded=0;orthogonalLoop=1;jettySize=auto;html=1;entryX=0;entryY=0.5;entryDx=0;entryDy=0;" edge="1" parent="1" source="pvc64GFZ2TO9P3zm8tja-11" target="pvc64GFZ2TO9P3zm8tja-12">
          <mxGeometry relative="1" as="geometry" />
        </mxCell>
        <mxCell id="pvc64GFZ2TO9P3zm8tja-9" style="edgeStyle=orthogonalEdgeStyle;rounded=0;orthogonalLoop=1;jettySize=auto;html=1;entryX=0;entryY=0.5;entryDx=0;entryDy=0;" edge="1" parent="1" source="pvc64GFZ2TO9P3zm8tja-11" target="pvc64GFZ2TO9P3zm8tja-13">
          <mxGeometry relative="1" as="geometry" />
        </mxCell>
        <mxCell id="pvc64GFZ2TO9P3zm8tja-10" style="edgeStyle=orthogonalEdgeStyle;rounded=0;orthogonalLoop=1;jettySize=auto;html=1;entryX=0;entryY=0.5;entryDx=0;entryDy=0;" edge="1" parent="1" source="pvc64GFZ2TO9P3zm8tja-11" target="pvc64GFZ2TO9P3zm8tja-14">
          <mxGeometry relative="1" as="geometry" />
        </mxCell>
        <mxCell id="pvc64GFZ2TO9P3zm8tja-16" style="edgeStyle=orthogonalEdgeStyle;rounded=0;orthogonalLoop=1;jettySize=auto;html=1;entryX=0;entryY=0.5;entryDx=0;entryDy=0;" edge="1" parent="1" source="pvc64GFZ2TO9P3zm8tja-11" target="pvc64GFZ2TO9P3zm8tja-15">
          <mxGeometry relative="1" as="geometry" />
        </mxCell>
        <mxCell id="pvc64GFZ2TO9P3zm8tja-11" value="Transportista" style="shape=umlActor;verticalLabelPosition=bottom;verticalAlign=top;html=1;outlineConnect=0;" vertex="1" parent="1">
          <mxGeometry x="442" y="153" width="30" height="60" as="geometry" />
        </mxCell>
        <mxCell id="pvc64GFZ2TO9P3zm8tja-12" value="Recibir solicitudes de envíos" style="rounded=0;whiteSpace=wrap;html=1;" vertex="1" parent="1">
          <mxGeometry x="562" y="62" width="166" height="37" as="geometry" />
        </mxCell>
        <mxCell id="pvc64GFZ2TO9P3zm8tja-13" value="Aceptar/rechazar solicitudes de envío" style="rounded=0;whiteSpace=wrap;html=1;" vertex="1" parent="1">
          <mxGeometry x="562" y="128.5" width="166" height="37" as="geometry" />
        </mxCell>
        <mxCell id="pvc64GFZ2TO9P3zm8tja-14" value="Actualizar estado del envío" style="rounded=0;whiteSpace=wrap;html=1;" vertex="1" parent="1">
          <mxGeometry x="562" y="196" width="166" height="37" as="geometry" />
        </mxCell>
        <mxCell id="pvc64GFZ2TO9P3zm8tja-15" value="Recibir el pago por sus envíos" style="rounded=0;whiteSpace=wrap;html=1;" vertex="1" parent="1">
          <mxGeometry x="562" y="264" width="166" height="37" as="geometry" />
        </mxCell>
        <mxCell id="pvc64GFZ2TO9P3zm8tja-17" style="edgeStyle=orthogonalEdgeStyle;rounded=0;orthogonalLoop=1;jettySize=auto;html=1;entryX=0;entryY=0.5;entryDx=0;entryDy=0;" edge="1" parent="1" source="pvc64GFZ2TO9P3zm8tja-20" target="pvc64GFZ2TO9P3zm8tja-21">
          <mxGeometry relative="1" as="geometry" />
        </mxCell>
        <mxCell id="pvc64GFZ2TO9P3zm8tja-18" style="edgeStyle=orthogonalEdgeStyle;rounded=0;orthogonalLoop=1;jettySize=auto;html=1;entryX=0;entryY=0.5;entryDx=0;entryDy=0;" edge="1" parent="1" source="pvc64GFZ2TO9P3zm8tja-20" target="pvc64GFZ2TO9P3zm8tja-22">
          <mxGeometry relative="1" as="geometry" />
        </mxCell>
        <mxCell id="pvc64GFZ2TO9P3zm8tja-19" style="edgeStyle=orthogonalEdgeStyle;rounded=0;orthogonalLoop=1;jettySize=auto;html=1;entryX=0;entryY=0.5;entryDx=0;entryDy=0;" edge="1" parent="1" source="pvc64GFZ2TO9P3zm8tja-20" target="pvc64GFZ2TO9P3zm8tja-23">
          <mxGeometry relative="1" as="geometry" />
        </mxCell>
        <mxCell id="pvc64GFZ2TO9P3zm8tja-26" style="edgeStyle=orthogonalEdgeStyle;rounded=0;orthogonalLoop=1;jettySize=auto;html=1;entryX=0;entryY=0.5;entryDx=0;entryDy=0;" edge="1" parent="1" source="pvc64GFZ2TO9P3zm8tja-20" target="pvc64GFZ2TO9P3zm8tja-24">
          <mxGeometry relative="1" as="geometry" />
        </mxCell>
        <mxCell id="pvc64GFZ2TO9P3zm8tja-27" style="edgeStyle=orthogonalEdgeStyle;rounded=0;orthogonalLoop=1;jettySize=auto;html=1;entryX=0;entryY=0.5;entryDx=0;entryDy=0;" edge="1" parent="1" source="pvc64GFZ2TO9P3zm8tja-20" target="pvc64GFZ2TO9P3zm8tja-25">
          <mxGeometry relative="1" as="geometry" />
        </mxCell>
        <mxCell id="pvc64GFZ2TO9P3zm8tja-20" value="Administrador" style="shape=umlActor;verticalLabelPosition=bottom;verticalAlign=top;html=1;outlineConnect=0;" vertex="1" parent="1">
          <mxGeometry x="117" y="518.5" width="30" height="60" as="geometry" />
        </mxCell>
        <mxCell id="pvc64GFZ2TO9P3zm8tja-21" value="Gestionar transportistas" style="rounded=0;whiteSpace=wrap;html=1;" vertex="1" parent="1">
          <mxGeometry x="235" y="396" width="166" height="37" as="geometry" />
        </mxCell>
        <mxCell id="pvc64GFZ2TO9P3zm8tja-22" value="Gestionar clientes" style="rounded=0;whiteSpace=wrap;html=1;" vertex="1" parent="1">
          <mxGeometry x="235" y="462.5" width="166" height="37" as="geometry" />
        </mxCell>
        <mxCell id="pvc64GFZ2TO9P3zm8tja-23" value="Monitorizar métricas de desempeño" style="rounded=0;whiteSpace=wrap;html=1;" vertex="1" parent="1">
          <mxGeometry x="235" y="530" width="166" height="37" as="geometry" />
        </mxCell>
        <mxCell id="pvc64GFZ2TO9P3zm8tja-24" value="Gestionar incidencias" style="rounded=0;whiteSpace=wrap;html=1;" vertex="1" parent="1">
          <mxGeometry x="235" y="598" width="166" height="37" as="geometry" />
        </mxCell>
        <mxCell id="pvc64GFZ2TO9P3zm8tja-25" value="Gestionar reembolsos" style="rounded=0;whiteSpace=wrap;html=1;" vertex="1" parent="1">
          <mxGeometry x="235" y="666" width="166" height="37" as="geometry" />
        </mxCell>
        <mxCell id="pvc64GFZ2TO9P3zm8tja-28" value="Ver historial de envíos" style="rounded=0;whiteSpace=wrap;html=1;" vertex="1" parent="1">
          <mxGeometry x="235" y="264" width="166" height="37" as="geometry" />
        </mxCell>
      </root>
    </mxGraphModel>
  </diagram>
</mxfile>
